<?xml version="1.0" standalone="no"?>
<!DOCTYPE svg PUBLIC "-//W3C//DTD SVG 20010904//EN"
 "http://www.w3.org/TR/2001/REC-SVG-20010904/DTD/svg10.dtd">
<svg version="1.0" xmlns="http://www.w3.org/2000/svg"
 width="25px" height="29px" viewBox="0 0 42.000000 43.000000"
 preserveAspectRatio="xMidYMid meet">

<g transform="translate(0.000000,43.000000) scale(0.100000,-0.100000)"
fill="#000000" stroke="none">
<path d="M162 377 c-19 -19 -58 -52 -88 -73 -29 -22 -54 -42 -54 -46 0 -4 17
-16 38 -27 21 -11 62 -38 90 -61 l52 -40 0 40 0 40 49 0 c52 0 94 -24 103 -58
8 -31 -18 -80 -54 -102 -43 -26 -16 -26 38 1 77 37 103 113 64 188 -22 45 -77
76 -152 86 -46 7 -47 8 -50 47 l-3 39 -33 -34z"/>
</g>
</svg>
