<?xml version="1.0" standalone="no"?>
<!DOCTYPE svg PUBLIC "-//W3C//DTD SVG 20010904//EN"
 "http://www.w3.org/TR/2001/REC-SVG-20010904/DTD/svg10.dtd">
<svg version="1.0" xmlns="http://www.w3.org/2000/svg" width="25px" height="28px" viewBox="0 0 35 30"
 preserveAspectRatio="xMidYMid meet">

<g transform="translate(0.000000,36.000000) scale(0.100000,-0.100000)" stroke="none">
<path d="M0 305 c0 -52 1 -55 23 -50 17 5 31 -4 62 -35 l39 -40 -39 -40 c-31
-31 -45 -40 -62 -35 -22 5 -23 2 -23 -50 l0 -55 51 0 c46 0 51 2 46 19 -5 22
55 101 77 101 6 0 28 -17 49 -38 27 -28 35 -43 31 -60 -6 -21 -3 -22 45 -22
l51 0 0 54 c0 50 -1 53 -22 49 -17 -3 -34 7 -63 36 l-39 41 39 41 c29 29 46
39 63 36 21 -4 22 -1 22 49 l0 54 -51 0 c-48 0 -51 -1 -45 -22 4 -17 -4 -32
-31 -60 -21 -21 -43 -38 -49 -38 -22 0 -82 79 -77 101 5 17 0 19 -46 19 l-51
0 0 -55z"/>
</g>
</svg>
