<?xml version="1.0" standalone="no"?>
<!DOCTYPE svg PUBLIC "-//W3C//DTD SVG 20010904//EN"
 "http://www.w3.org/TR/2001/REC-SVG-20010904/DTD/svg10.dtd">
<svg version="1.0" xmlns="http://www.w3.org/2000/svg"
 width="18" height="18" viewBox="0 0 29.000000 28.000000"
 preserveAspectRatio="xMidYMid meet">

<g transform="translate(0.000000,28.000000) scale(0.100000,-0.100000)"
fill="#000000" stroke="none">
<path d="M195 269 c-4 -6 3 -21 16 -35 28 -30 48 -17 31 21 -12 26 -36 33 -47
14z"/>
<path d="M77 152 c-58 -59 -77 -84 -77 -105 0 -23 4 -27 27 -27 21 0 44 17
100 77 40 43 73 83 73 89 0 10 -31 44 -41 44 -2 0 -39 -35 -82 -78z"/>
<path d="M125 30 c-4 -6 23 -10 74 -10 47 0 81 4 81 10 0 13 -147 13 -155 0z"/>
</g>
</svg>
