<?xml version="1.0" standalone="no"?>
<!DOCTYPE svg PUBLIC "-//W3C//DTD SVG 20010904//EN"
 "http://www.w3.org/TR/2001/REC-SVG-20010904/DTD/svg10.dtd">
<svg version="1.0" xmlns="http://www.w3.org/2000/svg"
 width="18" height="18" viewBox="0 0 56.000000 60.000000"
 preserveAspectRatio="xMidYMid meet">

<g transform="translate(0.000000,60.000000) scale(0.100000,-0.100000)"
fill="#000000" stroke="none">
<path d="M130 505 l0 -95 37 0 c34 0 35 -1 20 -18 -10 -10 -17 -26 -17 -35 0
-15 -12 -17 -80 -17 l-80 0 0 -50 0 -50 80 0 c75 0 80 -1 80 -22 0 -12 7 -30
17 -40 15 -17 14 -18 -20 -18 l-37 0 0 -80 0 -80 215 0 215 0 0 300 0 300
-215 0 -215 0 0 -95z m320 -210 l0 -195 -110 0 c-102 0 -110 1 -110 19 0 11
29 47 65 82 41 39 65 70 65 84 0 14 -24 45 -65 84 -51 49 -65 69 -65 92 l0 29
110 0 110 0 0 -195z"/>
</g>
</svg>
