<?xml version="1.0" standalone="no"?>
<!DOCTYPE svg PUBLIC "-//W3C//DTD SVG 20010904//EN"
 "http://www.w3.org/TR/2001/REC-SVG-20010904/DTD/svg10.dtd">
<svg version="1.0" xmlns="http://www.w3.org/2000/svg"
 width="70.000000pt" height="70.000000pt" viewBox="0 0 70.000000 70.000000"
 preserveAspectRatio="xMidYMid meet">
<metadata>
Created by potrace 1.11, written by Peter Selinger 2001-2013
</metadata>
<g transform="translate(0.000000,70.000000) scale(0.100000,-0.100000)"
fill="#000000" stroke="none">
<path d="M593 656 c-18 -24 -33 -48 -33 -53 0 -6 -6 -16 -14 -22 -10 -9 -23
-2 -57 33 -47 47 -95 66 -166 66 -42 0 -125 -30 -137 -49 -4 -6 -24 -8 -46 -6
-34 3 -43 -1 -65 -26 -26 -31 -33 -73 -15 -84 6 -4 8 -11 5 -16 -4 -5 1 -9 9
-9 16 0 20 -13 30 -85 5 -38 4 -42 -27 -55 l-32 -13 28 -4 c18 -3 25 -8 20
-16 -4 -7 0 -7 10 1 13 11 18 11 31 0 12 -11 11 -16 -10 -38 -53 -57 -74 -140
-37 -154 9 -4 12 -2 7 7 -5 8 -2 8 9 -2 9 -7 15 -17 12 -21 -3 -5 5 -6 17 -2
l22 5 -24 -39 c-13 -21 -30 -43 -37 -47 -37 -23 2 -27 244 -27 243 0 255 1
240 18 -37 41 -108 157 -98 160 6 2 11 11 11 20 0 15 2 15 10 2 5 -8 7 -22 5
-30 -2 -8 0 -22 5 -30 8 -13 13 -13 31 -2 19 12 21 12 16 -1 -3 -9 1 -18 11
-22 9 -3 13 -3 10 1 -4 3 -1 13 7 21 23 23 1 93 -45 141 -26 28 -20 54 12 49
13 -3 32 -1 43 3 19 7 18 8 -8 21 -23 10 -28 18 -25 43 2 30 44 83 61 78 5 -1
6 2 2 8 -3 5 -3 16 2 23 11 18 12 37 2 37 -5 0 -2 16 6 36 19 45 20 124 3 124
-7 0 -28 -20 -45 -44z m-444 -45 c9 -6 10 -11 2 -15 -6 -4 -18 -24 -26 -43
-11 -27 -18 -34 -26 -26 -18 18 -13 63 7 78 22 17 25 17 43 6z m106 -371 c-3
-5 -10 -10 -16 -10 -5 0 -9 5 -9 10 0 6 7 10 16 10 8 0 12 -4 9 -10z m175 0
c0 -5 -4 -10 -10 -10 -5 0 -10 5 -10 10 0 6 5 10 10 10 6 0 10 -4 10 -10z
m-247 -62 c2 -7 0 -21 -5 -32 -12 -23 -28 -4 -21 25 6 22 19 25 26 7z"/>
</g>
</svg>
